<svg xmlns="http://www.w3.org/2000/svg" viewBox="0 0 320 200" width="320" height="200">
  <defs>
    <linearGradient id="aBg" x1="0" y1="0" x2="1" y2="1">
      <stop offset="0" stop-color="#FDF4E3"/>
      <stop offset="1" stop-color="#F5DFA8"/>
    </linearGradient>
    <linearGradient id="aPhoto" x1="0" y1="0" x2="0" y2="1">
      <stop offset="0" stop-color="#D9C59B"/>
      <stop offset="1" stop-color="#C0A974"/>
    </linearGradient>
  </defs>
  <rect width="320" height="200" rx="12" fill="url(#aBg)" stroke="#DEC28A" stroke-width="1.5"/>

  <!-- Emblem circle -->
  <circle cx="30" cy="26" r="11" fill="none" stroke="#8B5A1E" stroke-width="1.5"/>
  <circle cx="30" cy="26" r="4" fill="#8B5A1E"/>
  <text x="48" y="22" font-family="Arial, sans-serif" font-weight="700" font-size="8.5" fill="#3C2816">भारत सरकार</text>
  <text x="48" y="31" font-family="Arial, sans-serif" font-weight="600" font-size="6.5" fill="#7A5B28" letter-spacing="0.3">GOVERNMENT OF INDIA</text>
  <text x="252" y="28" font-family="Arial, sans-serif" font-weight="800" font-size="11" fill="#8B5A1E" letter-spacing="1.5">UIDAI</text>

  <line x1="14" y1="44" x2="306" y2="44" stroke="#C9A85B" stroke-dasharray="3 2" stroke-width="0.8"/>

  <!-- Photo -->
  <rect x="14" y="54" width="68" height="86" rx="4" fill="url(#aPhoto)"/>
  <circle cx="48" cy="83" r="14" fill="#A88E5C"/>
  <path d="M 26 108 Q 48 92, 70 108 L 70 130 L 26 130 Z" fill="#A88E5C"/>

  <!-- Details -->
  <text x="94" y="63" font-family="Arial, sans-serif" font-size="6.5" fill="#7A5B28" font-weight="500">Name / नाम</text>
  <text x="94" y="77" font-family="Arial, sans-serif" font-size="12" fill="#1A1308" font-weight="700">Raman Kumar Sharma</text>

  <text x="94" y="95" font-family="Arial, sans-serif" font-size="6.5" fill="#7A5B28" font-weight="500">DOB / जन्म तिथि</text>
  <text x="94" y="108" font-family="Arial, sans-serif" font-size="11" fill="#1A1308" font-weight="600">15 / 06 / 1985</text>

  <text x="94" y="126" font-family="Arial, sans-serif" font-size="8" fill="#7A5B28" font-weight="600">MALE / पुरुष</text>

  <line x1="14" y1="150" x2="306" y2="150" stroke="#C9A85B" stroke-dasharray="3 2" stroke-width="0.8"/>

  <!-- Aadhaar number -->
  <text x="14" y="177" font-family="Arial, sans-serif" font-size="21" fill="#1A1308" font-weight="800" letter-spacing="5">XXXX  XXXX  1234</text>
  <text x="243" y="177" font-family="Arial, sans-serif" font-size="9" fill="#8B5A1E" font-weight="600">आधार AADHAAR</text>

  <!-- QR stub -->
  <rect x="278" y="52" width="28" height="28" rx="2" fill="#fff" stroke="#C9A85B" stroke-width="0.6"/>
  <rect x="281" y="55" width="5" height="5" fill="#8B5A1E"/>
  <rect x="297" y="55" width="5" height="5" fill="#8B5A1E"/>
  <rect x="281" y="71" width="5" height="5" fill="#8B5A1E"/>
  <rect x="290" y="62" width="3" height="3" fill="#8B5A1E"/>
  <rect x="294" y="66" width="3" height="3" fill="#8B5A1E"/>
  <rect x="297" y="72" width="4" height="4" fill="#8B5A1E"/>

  <!-- Watermark -->
  <text x="160" y="118" text-anchor="middle" font-family="Arial, sans-serif" font-size="14" font-weight="900" fill="#000" opacity="0.07" transform="rotate(-14 160 118)" letter-spacing="3">DUMMY · FOR REFERENCE</text>
</svg>
